<svg version="1" xmlns="http://www.w3.org/2000/svg" width="1365.333" height="1365.333" viewBox="0 0 1024.000000 1024.000000"><path d="M201 43.8c-5.4.6-25.4 5.5-27.9 6.8-1.4.8-3.2 1.4-3.8 1.4-2.9 0-30 14.2-32.3 16.8-1.3 1.6-4.1 3.7-8.9 6.7-7.5 4.7-10.1 6.8-10.1 8.1 0 .8-.4 1.3-.9 1-.5-.3-1.2.1-1.5 1-.3.8-1 1.3-1.5 1-1.1-.7-11.6 13.3-19 25.2-12 19.2-23.1 44.6-29.6 67.3-10.7 37.6-13.6 74.2-13.9 172.9-.1 63 .4 74.9 4.5 103.5C67.3 533.8 103 596.9 153 626.4c15 8.9 33.3 15.1 52 17.7 13 1.8 42.1 1.4 78-1.1 33.4-2.3 51.1-2.2 59.1.2 6.3 1.8 13 8.5 16.7 16.6 2.6 5.5 3.3 8.7 3.9 16.1.6 8.9.5 9.2-1.5 9.8-1.2.3-2.2 1.2-2.2 1.9 0 .8-1.8 3.4-4.1 5.9-3 3.2-5.4 4.8-9.2 5.9-9.1 2.5-22.8 4.2-34.7 4-12.7-.1-33.7-1.2-36-1.9-.8-.2-6.9-.7-13.5-1-15.8-.9-20.8-1.2-41-2.5-9.3-.6-22.2-1.3-28.5-1.6-10.6-.4-17-.7-44-1.7-5.2-.2-12.4.1-16 .6-3.6.5-8 1-9.8 1.1-1.8 0-3.6.6-4 1.1-.4.6-1.8 1.1-3.2 1.2-3.1.2-6.7 1-8 1.8-.6.3-1 .1-1-.6 0-.8-.3-.9-1.3 0-.8.6-1.7.8-2 .5-1.1-1.1-18.3 17-23.4 24.6-13.1 19.6-21 41.7-24.2 68-1.7 13.3-1.4 59.3.5 71.9 6.6 45.4 26.8 82.1 54.9 99.6 9 5.6 25.2 11 37.9 12.6 11 1.3 50.1.8 71.6-1 6.9-.6 22.6-1.8 35-2.6 31.8-2.2 64-5.1 94.5-8.6 34.8-3.9 59.3-11.6 80.9-25.6 14.8-9.6 23.8-17.8 58.1-53.3 23.1-23.9 23.9-23.9 47 0 40.2 41.6 50.9 50.7 73.3 61.9 15.8 8 39.1 14.1 65.7 17 30.5 3.5 62.7 6.4 94.5 8.6 12.4.8 28.1 2 35 2.6 21.5 1.8 60.6 2.3 71.6 1 12.7-1.6 28.9-7 37.9-12.6 19.5-12.1 35.1-33.3 45.5-61.4 8.5-23.1 11-40.3 11-75.1 0-14.6-.5-30.4-1.1-35-3.2-26.3-11.1-48.4-24.2-68-5.1-7.6-22.3-25.7-23.4-24.6-.3.3-1.2.1-2-.5-1-.9-1.3-.8-1.3 0 0 .7-.4.9-1 .6-1.3-.8-4.9-1.6-8-1.8-1.4-.1-2.8-.6-3.2-1.2-.4-.5-2.2-1.1-4-1.1-1.8-.1-6.2-.6-9.8-1.1-3.6-.5-10.8-.8-16-.6-27 1-33.4 1.3-44 1.7-6.3.3-19.1 1-28.5 1.6-20.2 1.3-25.2 1.6-41 2.5-6.6.3-12.7.8-13.5 1-2.3.7-23.3 1.8-36 1.9-11.9.2-25.6-1.5-34.7-4-3.8-1.1-6.2-2.7-9.2-5.9-2.3-2.5-4.1-5.1-4.1-5.9 0-.7-1-1.6-2.2-1.9-2-.6-2.1-.9-1.5-9.8.6-7.4 1.3-10.6 3.9-16.1 3.7-8.1 10.4-14.8 16.7-16.6 8-2.4 25.7-2.5 59.1-.2 52 3.6 74.1 3 96-2.5 47.4-11.8 88-52.6 112.1-112.7 11.3-28.1 18.8-62.2 21.9-99.3 2.7-32.5 2.1-127.8-1-178.5-3.4-54-16.8-99.1-41.1-138.2-6.9-11.2-18-25.8-19.1-25.2-.4.3-1.1-.2-1.4-1-.3-.9-1-1.3-1.5-1-.5.3-.9-.4-.9-1.6 0-1.2-.9-2.5-2.2-3-2.2-.9-6.5-3.5-12.4-7.4-1.6-1.1-3.6-2.8-4.4-3.8-.8-.9-5.1-3.6-9.5-5.9-4.3-2.2-9.3-5-11-6.2-1.6-1.2-3-2-3-1.8 0 .2-1.7-.4-3.9-1.3-2.1-.9-4.3-1.6-4.8-1.6-.6 0-2.4-.7-4.1-1.5-1.8-.8-8.1-2.6-14.2-4-9.9-2.4-12.9-2.7-30-2.6-10.4 0-22.1.3-26 .6-3.8.3-10.1.7-14 .9-3.8.2-10.4.7-14.5 1.1-4.1.4-9.3.7-11.5.7-2.2 0-8.4.7-13.8 1.4-5.4.8-10.2 1.2-10.6 1-.4-.3-5.3.1-10.9.9-5.6.8-10.7 1.2-11.4 1-.7-.3-6 .6-11.8 1.9-5.8 1.3-10.7 2-11 1.6-.3-.5-2.3-.2-4.5.6-2.2.7-4.6 1.4-5.3 1.4-.7 0-3.3.9-5.8 2-2.5 1.2-5.3 1.8-6.3 1.5-1.1-.3-5.8 1.4-11.7 4.4-5.4 2.7-10.1 4.5-10.5 4-.3-.5-4.2 1.3-8.8 4.1-4.5 2.7-8.4 5-8.7 5-.3 0-1.5.9-2.7 2-1.2 1.2-2.3 1.6-2.5 1-.4-1.1-11 6.8-17.9 13.4-2.4 2.2-4.3 3.4-4.3 2.7 0-1.4-7.5 5.9-14.8 14.3-2.3 2.7-4.2 4.3-4.2 3.7 0-1.2-9.6 9.6-11.6 13-2.1 3.6-25.6 26.1-26.3 25.1-.4-.6-2.6 0-5.6 1.4-6.2 2.9-8.4 2.9-14 .4-2.4-1.1-5-1.7-5.8-1.4-1 .4-5.7-3.6-13.8-11.5-6.7-6.6-12.7-12.9-13.3-14-2-3.4-11.6-14.2-11.6-13 0 .6-1.9-1-4.2-3.7-7.3-8.4-14.8-15.7-14.8-14.3 0 .7-1.9-.5-4.2-2.7-7-6.6-17.6-14.5-18-13.4-.2.6-1.3.2-2.5-1-1.2-1.1-2.4-2-2.7-2-.3 0-4.2-2.3-8.7-5-4.6-2.8-8.5-4.6-8.8-4.1-.4.5-5.1-1.3-10.5-4-6-3-10.6-4.7-11.7-4.4-1 .4-3.3-.1-5.1-.9-5-2.4-16.6-5.5-17-4.6-.2.4-5-.3-10.8-1.6-5.8-1.3-11.1-2.2-11.8-1.9-.7.2-5.8-.2-11.4-1-5.6-.8-10.5-1.2-10.9-.9-.4.2-5.2-.2-10.6-1-5.4-.7-11.6-1.4-13.8-1.4-2.2 0-7.4-.3-11.5-.7-4.1-.4-10.2-.9-13.5-1-3.3-.1-10.5-.6-16-1-10.6-.7-37.3-1.2-41.5-.7zm138 270.4c13.5 2.6 22.2 14.9 23.6 33.7.7 8.8.6 9.1-1.5 9.1-1.3 0-2.1.6-2.1 1.8 0 2.8-7.1 9.7-11.8 11.6-9.9 3.8-33.7 5.5-49.7 3.6-4.4-.5-10.5-1.2-13.5-1.5-3-.4-8.6-1.5-12.5-2.6-3.8-1.1-8.4-2.1-10.2-2.3-3.6-.4-8.5-3.5-12.4-7.7-1.9-2.1-3.7-2.8-7-3.1l-4.4-.3V351c.1-7.2 4.4-16.8 9.8-21.6 8.5-7.8 25.5-13.1 48.2-15.4 20.5-2 32.5-1.9 43.5.2zm390-.1c22.4 2.2 39.2 7.6 47.7 15.3 5.4 4.8 9.7 14.4 9.8 21.6v5.5l-4.4.3c-3.3.3-5.1 1-7 3.1-3.9 4.2-8.8 7.3-12.4 7.7-1.8.2-6.3 1.2-10.2 2.3-3.8 1.1-9.5 2.2-12.5 2.6-3 .3-9.1 1-13.5 1.5-16 1.9-39.8.2-49.7-3.6-4.7-1.9-11.8-8.8-11.8-11.6 0-1.2-.8-1.8-2.1-1.8-2.1 0-2.2-.3-1.5-9.1.7-9.7 2.2-14.6 6.9-22.2 7.6-12.5 22.7-15.4 60.7-11.6z"/></svg>